<?xml version="1.0" standalone="no"?>
<!DOCTYPE svg PUBLIC "-//W3C//DTD SVG 20010904//EN"
 "http://www.w3.org/TR/2001/REC-SVG-20010904/DTD/svg10.dtd">
<svg version="1.0" xmlns="http://www.w3.org/2000/svg"
 width="37.000000pt" height="24.000000pt" viewBox="0 0 37.000000 24.000000"
 preserveAspectRatio="xMidYMid meet">

<g transform="translate(0.000000,24.000000) scale(0.100000,-0.100000)"
fill="#000000" stroke="none">
<path d="M36 205 c-9 -9 -16 -30 -16 -46 0 -25 7 -33 45 -51 49 -24 57 -43 23
-54 -14 -4 -25 -1 -33 10 -19 25 -37 19 -33 -11 3 -25 7 -28 47 -31 98 -7 117
84 24 123 -38 16 -40 38 -5 43 13 2 25 -3 28 -12 11 -28 36 -19 32 12 -3 25
-7 27 -49 30 -33 2 -51 -2 -63 -13z"/>
<path d="M200 205 c0 -8 5 -15 10 -15 6 0 10 -30 10 -70 0 -40 -4 -70 -10 -70
-5 0 -10 -7 -10 -15 0 -21 107 -21 138 1 25 18 29 56 7 74 -11 9 -13 16 -5 24
17 17 12 64 -9 76 -11 5 -45 10 -75 10 -43 0 -56 -3 -56 -15z m99 -24 c19 -12
6 -41 -19 -41 -13 0 -20 7 -20 18 0 31 14 39 39 23z m11 -86 c16 -19 4 -35
-26 -35 -19 0 -24 5 -24 25 0 29 29 35 50 10z"/>
</g>
</svg>
